<svg width="33" height="32" viewBox="0 0 33 32" fill="none"
  xmlns="http://www.w3.org/2000/svg">
  <path d="M11.0883 4.05503C11.0859 3.22575 11.0844 2.28637 11.0838 1.23691C11.0838 1.04933 11.0856 0.728027 11.3037 0.65892C12.2504 0.358559 13.2829 0.150341 14.4013 0.0342652C14.8223 -0.00881447 15.2163 -0.107539 15.2199 0.470447C15.2432 3.66971 15.2444 6.53062 15.2235 9.05317C15.2226 9.24882 15.0897 9.43191 14.8878 9.46152C13.9633 9.59794 13.0337 9.98566 12.099 10.6247C11.9159 10.7503 11.7489 10.6274 11.6214 10.499C9.56415 8.44317 7.52661 6.40467 5.50881 4.38351C5.31672 4.19055 5.3616 3.97336 5.5483 3.8145C6.47343 3.03249 7.4171 2.3857 8.37932 1.87412C8.59115 1.76194 8.77785 1.83015 8.93314 1.98541C9.62728 2.68067 10.3253 3.37892 11.0272 4.08016C11.0322 4.08508 11.0386 4.08842 11.0455 4.08976C11.0524 4.09111 11.0595 4.0904 11.066 4.08772C11.0725 4.08505 11.0781 4.08052 11.0821 4.07471C11.086 4.0689 11.0882 4.06206 11.0883 4.05503Z" fill="#99C93C"/>
  <path d="M20.9075 4.05835C20.9111 4.06573 20.9164 4.07213 20.923 4.07703C20.9295 4.08193 20.9372 4.08518 20.9453 4.0865C20.9534 4.08782 20.9617 4.08718 20.9695 4.08462C20.9773 4.08206 20.9843 4.07767 20.9901 4.07181C21.7219 3.33826 22.4388 2.62146 23.1407 1.92142C23.2915 1.77064 23.5204 1.81192 23.69 1.90706C24.7815 2.52214 25.7123 3.17162 26.4825 3.85551C26.7257 4.07181 26.565 4.33208 26.3873 4.50889C24.3653 6.52585 22.349 8.54162 20.3384 10.5562C20.2199 10.6747 20.018 10.7168 19.8753 10.6145C19.0495 10.024 18.1112 9.63297 17.0604 9.4415C16.862 9.40561 16.7812 9.23418 16.7812 9.05289C16.783 6.24913 16.783 3.37176 16.7812 0.42081C16.7812 -0.0234486 17.0416 -0.00280644 17.397 0.0196309C18.2653 0.0752754 19.3095 0.266741 20.5296 0.594026C20.7396 0.650568 20.9003 0.744805 20.8976 0.988922C20.8886 2.0342 20.8884 3.04179 20.8967 4.01168C20.8967 4.02783 20.9003 4.04339 20.9075 4.05835Z" fill="#99C93C"/>
  <path d="M4.05031 11.0013C3.34659 10.275 2.64497 9.57013 1.94545 8.88684C1.79345 8.73845 1.76982 8.56733 1.87454 8.37347C2.32333 7.54359 2.86458 6.72897 3.49829 5.9296C3.62455 5.77044 3.7565 5.62206 3.89413 5.48444C4.18405 5.19635 4.5018 5.6074 4.6894 5.79408C6.69223 7.79429 8.65587 9.7589 10.5803 11.6879C10.706 11.8145 10.6925 12.011 10.5938 12.1501C10.0223 12.9567 9.64293 13.8691 9.45563 14.8875C9.41554 15.1047 9.28359 15.2133 9.05979 15.2133C6.18928 15.2145 3.31039 15.2145 0.423123 15.2133C0.120932 15.2133 -0.0193921 15.0661 0.00215025 14.7717C0.0811387 13.6762 0.285791 12.5564 0.616106 11.4124C0.660088 11.2607 0.754336 11.1036 0.930265 11.1036C1.97866 11.1066 3.00461 11.1066 4.00812 11.1036C4.01992 11.1035 4.03142 11.0999 4.04118 11.0933C4.05095 11.0867 4.05856 11.0773 4.06305 11.0664C4.06755 11.0555 4.06874 11.0435 4.06647 11.032C4.06421 11.0204 4.05859 11.0097 4.05031 11.0013Z" fill="#99C93C"/>
  <path d="M4.09221 20.9475C4.09284 20.9401 4.09193 20.9326 4.08955 20.9255C4.08717 20.9185 4.08337 20.912 4.07839 20.9065C4.0734 20.901 4.06735 20.8966 4.06062 20.8937C4.05388 20.8907 4.0466 20.8892 4.03925 20.8892C3.00881 20.888 1.97359 20.888 0.933571 20.8892C0.798034 20.8892 0.686732 20.7869 0.647238 20.663C0.327693 19.6465 0.114066 18.5204 0.00635408 17.2849C-0.0151882 17.03 0.0611073 16.7814 0.34385 16.7814C3.24428 16.7796 6.151 16.7796 9.064 16.7814C9.286 16.7814 9.41705 16.8906 9.45715 17.109C9.64833 18.1635 10.0469 19.0359 10.6267 19.9055C10.6668 19.9659 10.6848 20.0381 10.6778 20.1101C10.6707 20.182 10.6391 20.2493 10.5881 20.3004C8.53501 22.3599 6.47653 24.4193 4.41265 26.4788C4.15684 26.7337 3.93154 26.5802 3.74664 26.3612C3.00702 25.4876 2.3778 24.5632 1.85899 23.588C1.76923 23.4198 1.79257 23.2676 1.92901 23.1311C2.67401 22.3862 3.3891 21.6706 4.07426 20.9843C4.08443 20.9742 4.09042 20.9619 4.09221 20.9475Z" fill="#99C93C"/>
  <path d="M27.9362 20.984C28.6399 21.6919 29.3374 22.3892 30.0285 23.0761C30.2002 23.2466 30.2257 23.4408 30.1048 23.6586C29.51 24.7302 28.864 25.6612 28.1669 26.4516C27.982 26.6616 27.7902 26.667 27.5915 26.4677C25.5384 24.4149 23.4913 22.3677 21.4502 20.3262C21.2982 20.1748 21.2859 20.0082 21.4134 19.8263C21.9872 19.0072 22.3618 18.1106 22.5372 17.1365C22.5802 16.8996 22.7107 16.7811 22.9285 16.7811C25.8056 16.7781 28.7066 16.7784 31.6316 16.782C31.8569 16.782 32.0149 16.9543 31.9987 17.1841C31.9161 18.3293 31.7037 19.4813 31.3614 20.6403C31.3339 20.7336 31.2812 20.8075 31.2035 20.862C31.1789 20.8793 31.1514 20.888 31.1209 20.888H27.9757C27.9646 20.8878 27.9538 20.891 27.9446 20.8971C27.9353 20.9032 27.9282 20.912 27.9239 20.9223C27.9197 20.9326 27.9186 20.9439 27.9208 20.9549C27.923 20.9659 27.9283 20.9761 27.9362 20.984Z" fill="#99C93C"/>
  <path d="M11.0612 27.9033C11.0554 27.9022 11.0494 27.9026 11.0436 27.9045C11.0378 27.9063 11.0324 27.9096 11.028 27.9141C10.3153 28.6267 9.59455 29.3468 8.8657 30.0743C8.7158 30.2233 8.4932 30.1856 8.32445 30.0941C7.41608 29.6011 6.52507 28.9914 5.65141 28.265C5.44766 28.0954 5.25108 27.8638 5.50151 27.6134C7.55401 25.5611 9.61849 23.4969 11.6949 21.4207C11.8152 21.3004 11.9884 21.2951 12.1267 21.3893C13.0075 21.9984 13.9311 22.3807 14.8975 22.5363C15.1004 22.5686 15.2252 22.7553 15.2261 22.95C15.2368 25.8166 15.2371 28.6671 15.227 31.5013C15.2252 31.7912 15.1184 32.0255 14.7791 31.9959C13.4895 31.8834 12.343 31.6677 11.3395 31.3488C11.1773 31.2973 11.0953 31.1851 11.0935 31.0122C11.081 30.0244 11.0804 29.0006 11.0917 27.941C11.0917 27.9201 11.0816 27.9075 11.0612 27.9033Z" fill="#99C93C"/>
  <path d="M20.9871 27.9202C20.9796 27.9124 20.9699 27.9071 20.9593 27.905C20.9487 27.9028 20.9377 27.9039 20.9278 27.908C20.9178 27.9122 20.9093 27.9193 20.9034 27.9283C20.8975 27.9374 20.8944 27.948 20.8947 27.9588C20.8923 28.958 20.8923 29.9925 20.8947 31.0623C20.8947 31.2176 20.7825 31.3163 20.6442 31.3585C19.5336 31.6947 18.3652 31.908 17.1391 31.9984C16.7513 32.0271 16.7837 31.5739 16.7837 31.328C16.7813 28.5015 16.7819 25.6758 16.7855 22.8511C16.7855 22.6591 16.9928 22.5586 17.1589 22.5289C18.1247 22.3566 19.0292 21.9749 19.8723 21.3837C20.0312 21.2716 20.2197 21.32 20.3498 21.4493C22.3993 23.5027 24.4491 25.5532 26.4992 27.6007C26.7075 27.8089 26.5971 28.0458 26.4077 28.2092C25.5927 28.914 24.6762 29.5449 23.6584 30.102C23.4465 30.2181 23.2637 30.1989 23.1099 30.0445C22.4194 29.3499 21.7118 28.6418 20.9871 27.9202Z" fill="#99C93C"/>
  <path d="M28.0345 11.1134C28.0319 11.1211 28.0311 11.1294 28.0323 11.1375C28.0335 11.1457 28.0367 11.1534 28.0415 11.16C28.0463 11.1666 28.0526 11.172 28.06 11.1757C28.0673 11.1794 28.0754 11.1813 28.0836 11.1812C29.1198 11.1772 30.1335 11.1745 31.1249 11.1731C31.3381 11.1726 31.4713 11.3633 31.5245 11.5504C31.8646 12.7562 32.0665 13.8731 32.1303 14.901C32.1502 15.2259 31.8528 15.2972 31.6021 15.2972C28.7461 15.3013 25.895 15.3086 23.0488 15.3191C22.8812 15.3196 22.7083 15.207 22.6793 15.0339C22.5102 14.0328 22.1207 13.0939 21.5107 12.2171C21.3954 12.0518 21.459 11.8733 21.5868 11.7447C23.5653 9.75811 25.5944 7.71804 27.6742 5.62451C27.9875 5.30953 28.1575 5.50773 28.3937 5.7743C28.97 6.42606 29.5754 7.29818 30.2096 8.39066C30.3187 8.57887 30.3662 8.75899 30.1921 8.93017C29.4486 9.66496 28.7378 10.3791 28.0598 11.0727C28.0484 11.0842 28.04 11.0977 28.0345 11.1134Z" fill="#189BCD"/>
</svg>
