<svg width="81" height="24" viewBox="0 0 81 24" fill="none"
  xmlns="http://www.w3.org/2000/svg">
  <path d="M22.8756 16.0019C23.2166 16.073 23.5568 16.0778 23.8962 16.0162C23.9054 16.0146 23.9148 16.015 23.9238 16.0174C23.9327 16.0198 23.9411 16.0241 23.9482 16.03C23.9553 16.0359 23.961 16.0433 23.9649 16.0517C23.9688 16.06 23.9708 16.0692 23.9707 16.0784V18.725C23.9707 18.7592 23.9543 18.7808 23.9213 18.7898C23.0684 19.0256 22.1888 19.0369 21.2823 18.8234C20.7375 18.6945 20.2633 18.4564 19.8598 18.109C18.9589 17.3332 18.8333 16.1582 18.835 15.0387C18.8417 10.0233 18.8431 5.0185 18.8392 0.024374C18.8392 0.0179096 18.8417 0.0117105 18.8463 0.00713951C18.8508 0.00256852 18.857 0 18.8634 0H22.1254C22.1314 0 22.1372 0.00239129 22.1414 0.00664704C22.1456 0.0109028 22.148 0.0166748 22.148 0.0226933C22.148 5.05268 22.1483 10.03 22.1489 14.9546C22.1489 15.4337 22.3515 15.8935 22.8756 16.0019Z" fill="#189BCD"/>
  <path d="M39.9214 13.2794C40.2362 14.3477 40.9161 15.2285 41.9091 15.7109C43.0645 16.2732 44.5867 16.2497 45.7002 15.5512C46.432 15.0915 46.9795 14.1813 47.1403 13.3475C47.1649 13.222 47.1858 13.0965 47.2031 12.971C47.2081 12.9345 47.229 12.9163 47.2659 12.9163L50.5731 12.9155C50.6317 12.9155 50.6568 12.9444 50.6484 13.0021C50.4182 14.6318 49.8304 16.153 48.5779 17.2692C47.5252 18.2066 46.3159 18.7946 44.95 19.0333C43.6629 19.258 42.3727 19.1647 41.0794 18.7535C38.7551 18.0138 37.0605 16.0219 36.492 13.6702C36.3321 13.0096 36.2341 12.323 36.1864 11.638C36.1088 10.5179 36.0993 9.32693 36.1579 8.06509C36.2015 7.12039 36.3048 6.30401 36.4677 5.61594C36.9545 3.55732 38.0973 2.00132 39.8963 0.947916C40.632 0.51759 41.4771 0.232668 42.4315 0.093148C42.714 0.0522447 43.0907 0.0228283 43.5618 0.00489811C43.6439 0.00209652 43.7262 0.00405761 43.8088 0.0107814C43.8931 0.0175053 43.9768 0.0233886 44.06 0.0284314C45.8021 0.132091 47.2801 0.711181 48.4942 1.7657C49.7994 2.89867 50.4358 4.4359 50.6493 6.11854C50.6537 6.15609 50.637 6.17486 50.599 6.17486L47.2659 6.1757C47.224 6.1757 47.2014 6.15468 47.1981 6.11266C47.1517 5.45821 46.8693 4.81832 46.3508 4.19301C45.789 3.51558 45.0061 3.20965 44.1421 3.11131C43.6916 3.05976 43.2772 3.07265 42.8987 3.14997C41.0894 3.51978 40.083 4.82253 39.7506 6.59425C39.6245 7.26608 39.562 7.92053 39.5631 8.55761C39.5631 8.79183 39.5533 9.0224 39.5338 9.24933C39.5137 9.48578 39.5134 9.72056 39.5329 9.95365C39.5514 10.1688 39.562 10.3985 39.5648 10.6428C39.5756 11.5472 39.6711 12.4297 39.9214 13.2794Z" fill="#99C93C"/>
  <path d="M12.3212 15.2696H5.09062C5.08373 15.2696 5.07703 15.2719 5.07146 15.2759C5.0659 15.28 5.06176 15.2857 5.05964 15.2923L3.8858 18.7879C3.88368 18.7945 3.87954 18.8002 3.87398 18.8043C3.86841 18.8083 3.86171 18.8105 3.85482 18.8106H0.519176C0.513936 18.8106 0.508765 18.8094 0.504101 18.807C0.499437 18.8046 0.495414 18.8011 0.492376 18.7968C0.489338 18.7925 0.487372 18.7875 0.486644 18.7823C0.485917 18.7771 0.486449 18.7718 0.488195 18.7669L6.92757 0.361209C6.92983 0.354787 6.93403 0.349231 6.93958 0.345315C6.94513 0.341399 6.95176 0.339316 6.95855 0.339356H10.583C10.5898 0.339316 10.5965 0.341399 10.602 0.345315C10.6076 0.349231 10.6118 0.354787 10.614 0.361209L17.0534 18.7669C17.0551 18.7718 17.0557 18.7771 17.055 18.7823C17.0542 18.7875 17.0523 18.7925 17.0492 18.7968C17.0462 18.8011 17.0422 18.8046 17.0375 18.807C17.0328 18.8094 17.0277 18.8106 17.0224 18.8106H13.5578C13.551 18.8105 13.5442 18.8083 13.5387 18.8043C13.5331 18.8002 13.529 18.7945 13.5269 18.7879L12.3522 15.2923C12.3501 15.2857 12.3459 15.28 12.3404 15.2759C12.3348 15.2719 12.3281 15.2696 12.3212 15.2696ZM6.12213 12.2094C6.11654 12.2251 6.12212 12.233 6.13887 12.233H11.2813C11.2835 12.233 11.2857 12.2325 11.2877 12.2315C11.2896 12.2304 11.2913 12.2289 11.2925 12.2271C11.2938 12.2253 11.2946 12.2232 11.2948 12.221C11.295 12.2188 11.2947 12.2165 11.2939 12.2145L8.76284 4.6964C8.75391 4.66894 8.75168 4.64121 8.75614 4.61319C8.75894 4.59134 8.75782 4.57593 8.7528 4.56697C8.7288 4.5255 8.70898 4.52746 8.69335 4.57285C7.80809 7.1873 6.95101 9.73283 6.12213 12.2094Z" fill="#189BCD"/>
  <path d="M30.8364 5.27689H34.1193C34.1353 5.27689 34.1506 5.28335 34.1619 5.29486C34.1732 5.30636 34.1796 5.32197 34.1796 5.33824V7.94961C34.1796 7.95763 34.1765 7.96533 34.171 7.971C34.1655 7.97668 34.158 7.97987 34.1503 7.97987L30.8029 7.97734C30.7956 7.97734 30.7885 7.98018 30.7834 7.98522C30.7782 7.99027 30.7753 7.99711 30.7753 8.00424C30.773 10.1211 30.775 12.2716 30.7811 14.4558C30.7845 15.5812 31.2634 15.9989 32.3502 15.9997C32.9831 16.0003 33.6504 15.9571 34.352 15.8703C34.3574 15.8697 34.3629 15.8703 34.3681 15.8719C34.3732 15.8736 34.378 15.8764 34.382 15.88C34.3861 15.8837 34.3893 15.8881 34.3915 15.8931C34.3937 15.8981 34.3948 15.9035 34.3948 15.9089L34.3956 18.5783C34.3955 18.5925 34.3909 18.6062 34.3824 18.6173C34.3739 18.6284 34.3621 18.6363 34.3487 18.6397C33.6002 18.8296 32.8324 18.9453 32.0454 18.9868C31.1428 19.0338 30.1951 18.9456 29.3938 18.5363C28.081 17.8656 27.5301 16.4284 27.5309 14.9743C27.5331 12.4675 27.5337 10.1491 27.5326 8.01937C27.5326 8.008 27.5281 7.9971 27.5201 7.98906C27.512 7.98102 27.5012 7.9765 27.4899 7.9765L25.1104 7.97903C25.0752 7.97903 25.0576 7.9611 25.0576 7.92523V5.31975C25.0576 5.29117 25.0719 5.27689 25.1003 5.27689H27.4899C27.5016 5.27689 27.5129 5.27219 27.5212 5.26384C27.5296 5.25548 27.5342 5.24415 27.5342 5.23234L27.5317 1.89144C27.5318 1.87299 27.538 1.8551 27.5494 1.84062C27.5608 1.82614 27.5767 1.81592 27.5945 1.81159L30.7284 1.03499C30.7596 1.0277 30.7753 1.04003 30.7753 1.07197L30.7761 5.21553C30.7761 5.25643 30.7962 5.27689 30.8364 5.27689Z" fill="#189BCD"/>
  <path d="M61.246 17.2542C61.2366 17.1842 61.2134 17.1792 61.1766 17.2391C61.0454 17.4515 60.8936 17.6392 60.7211 17.8022C59.895 18.5839 58.9031 19.0243 57.7455 19.1235C56.9986 19.1868 56.28 19.1389 55.5895 18.9797C55.2211 18.8951 54.8784 18.771 54.5614 18.6074C53.0554 17.8325 52.2868 16.5852 52.2555 14.8656C52.2405 14.0106 52.4866 13.2253 52.994 12.5097C53.7065 11.5037 54.8427 10.9843 56.0157 10.7557C56.2842 10.7036 56.5755 10.6654 56.8898 10.6414C58.1579 10.545 59.4381 10.4548 60.7303 10.3707C60.7616 10.3685 60.778 10.352 60.7797 10.3211C60.8375 9.30499 60.7989 7.87618 59.5966 7.55428C59.1278 7.42876 58.6237 7.39178 58.0845 7.44333C56.9902 7.54755 56.1346 8.12832 56.0743 9.28398C56.0726 9.31984 56.0542 9.33777 56.019 9.33777L52.9555 9.33609C52.9186 9.33609 52.9016 9.31788 52.9044 9.28146C53.0844 6.90206 54.5982 5.50435 56.8504 5.0799C58.1024 4.84345 59.3519 4.87651 60.5988 5.17908C61.267 5.34101 61.8419 5.5996 62.3236 5.95484C63.3149 6.68522 63.8449 8.01066 63.9177 9.2428C63.9336 9.51343 63.9646 9.78995 63.9655 10.0606C63.9716 12.0497 63.9719 13.8579 63.9663 15.485C63.9646 15.8229 64.05 16.1591 64.4243 16.2574C64.6286 16.3107 64.849 16.3053 65.0857 16.2415C65.1231 16.2314 65.1418 16.2457 65.1418 16.2843V18.5965C65.1418 18.6273 65.1281 18.6494 65.1008 18.6629C64.8412 18.7934 64.5806 18.8881 64.3188 18.947C63.8421 19.054 63.3453 19.0554 62.8285 18.9512C62.0331 18.7906 61.3557 18.1023 61.246 17.2542ZM60.7663 13.7352C60.7903 13.4343 60.7962 13.1451 60.7839 12.8678C60.7822 12.8319 60.7635 12.8148 60.7278 12.8165C60.3153 12.8389 59.8886 12.8689 59.4476 12.9064C58.689 12.9709 58.0061 13.0236 57.3988 13.0645C56.9375 13.0964 56.5708 13.225 56.158 13.4771C55.9091 13.6284 55.7215 13.8397 55.5954 14.1109C55.4363 14.4532 55.3995 14.8073 55.4849 15.1732C55.568 15.5301 55.7422 15.8137 56.0073 16.0238C56.3534 16.2989 56.7248 16.4505 57.1217 16.4785C57.7792 16.5256 58.4052 16.4303 58.9997 16.1927C60.0655 15.7666 60.6708 14.9169 60.7663 13.7352Z" fill="#99C93C"/>
  <path d="M71.209 17.9284L71.2098 23.9488C71.2098 23.9829 71.1928 24 71.1587 24H67.993C67.954 24 67.9344 23.9804 67.9344 23.9412L67.9336 5.32625C67.9336 5.29375 67.9501 5.2775 67.983 5.2775H70.7116C70.7245 5.27755 70.7369 5.28215 70.7466 5.29048C70.7562 5.29882 70.7626 5.31032 70.7644 5.32289L70.9318 6.60042C70.943 6.68391 70.972 6.69063 71.0189 6.62059C71.3398 6.1432 71.7666 5.77199 72.2991 5.50696C72.984 5.16572 73.8179 4.94552 74.599 4.96233C74.8653 4.96821 75.1298 4.95392 75.3944 4.98502C77.4968 5.23296 79.1671 6.78953 79.8746 8.73608C80.1961 9.6197 80.3669 10.5103 80.387 11.408C80.3912 11.5634 80.4431 11.9156 80.4197 12.1728C80.4052 12.3314 80.3973 12.4423 80.3962 12.5056C80.3806 13.3411 80.2547 14.1574 80.0186 14.9548C79.6273 16.2788 78.9226 17.3392 77.9045 18.136C77.204 18.6845 76.386 19.0093 75.4505 19.1101C73.946 19.2715 72.3116 18.9916 71.2341 17.9175C71.2173 17.9001 71.209 17.9037 71.209 17.9284ZM73.6219 16.3668C74.5407 16.4873 75.3143 16.2444 75.9428 15.6381C76.5808 15.0229 76.8688 14.2883 76.9944 13.431C77.1491 12.3714 77.1264 11.334 76.9266 10.3187C76.7977 9.66032 76.5306 9.10281 76.1254 8.64615C75.5728 8.02251 74.8954 7.70985 74.0933 7.70817C73.7741 7.70761 73.4693 7.74543 73.179 7.82163C72.063 8.11244 71.3848 9.27903 71.1905 10.3422C70.9957 11.404 70.9868 12.4897 71.1638 13.5991C71.3312 14.6497 71.8352 15.6566 72.7931 16.134C73.0163 16.2455 73.2926 16.3231 73.6219 16.3668Z" fill="#99C93C"/>
</svg>
