<svg width="20" height="20" viewBox="0 0 20 20" fill="none" xmlns="http://www.w3.org/2000/svg">
<rect x="0.5" y="0.5" width="19" height="19" rx="9.5" fill="white"/>
<rect x="0.5" y="0.5" width="19" height="19" rx="9.5" stroke="#D0D5DD" stroke-dasharray="2 2"/>
<path fill-rule="evenodd" clip-rule="evenodd" d="M10.9324 4.81081C10.9324 4.36301 10.5694 4 10.1216 4C9.67382 4 9.31081 4.36301 9.31081 4.81081V9.06757L4.81081 9.06757C4.36301 9.06757 4 9.43058 4 9.87838C4 10.3262 4.36301 10.6892 4.81081 10.6892L9.31081 10.6892V15.1892C9.31081 15.637 9.67382 16 10.1216 16C10.5694 16 10.9324 15.637 10.9324 15.1892V10.6892L15.1892 10.6892C15.637 10.6892 16 10.3262 16 9.87838C16 9.43058 15.637 9.06757 15.1892 9.06757L10.9324 9.06757V4.81081Z" fill="#101828"/>
</svg>
