<svg width="40" height="40" viewBox="0 0 40 40" fill="none"
    xmlns="http://www.w3.org/2000/svg">
    <path d="M4 4C4 1.79086 5.79086 0 8 0H24L36 12V36C36 38.2091 34.2091 40 32 40H8C5.79086 40 4 38.2091 4 36V4Z" fill="#D92D20"/>
    <path opacity="0.3" d="M24 0L36 12H28C25.7909 12 24 10.2091 24 8V0Z" fill="white"/>
    <path d="M25.0745 25.1945C24.0764 25.1945 22.8274 25.3686 22.4187 25.4299C20.7274 23.6637 20.2462 22.6598 20.138 22.3921C20.2847 22.0152 20.795 20.5835 20.8676 18.7448C20.9033 17.8241 20.7089 17.1362 20.2894 16.7002C19.8707 16.2648 19.3638 16.231 19.2185 16.231C18.7089 16.231 17.8539 16.4887 17.8539 18.2144C17.8539 19.7117 18.5521 21.3006 18.745 21.7111C17.7283 24.6715 16.6367 26.6981 16.405 27.1149C12.3195 28.6531 12 30.1404 12 30.5619C12 31.3194 12.5395 31.7716 13.443 31.7716C15.6384 31.7716 17.6418 28.0858 17.9731 27.4458C19.5323 26.8246 21.6192 26.4397 22.1497 26.3479C23.6715 27.7975 25.4314 28.1843 26.1623 28.1843C26.7122 28.1843 27.9999 28.1843 27.9999 26.8603C28 25.6307 26.4241 25.1945 25.0745 25.1945ZM24.9687 26.0637C26.1545 26.0637 26.4679 26.4559 26.4679 26.6632C26.4679 26.7933 26.4185 27.2178 25.7829 27.2178C25.213 27.2178 24.2289 26.8885 23.2607 26.1737C23.6645 26.1207 24.2619 26.0637 24.9687 26.0637ZM19.1562 17.0735C19.2644 17.0735 19.3355 17.1082 19.3942 17.1896C19.7353 17.6629 19.4603 19.2092 19.1256 20.4192C18.8025 19.3817 18.56 17.7896 18.9012 17.2295C18.9678 17.1202 19.0441 17.0735 19.1562 17.0735ZM18.5803 26.3356C19.0097 25.4683 19.4908 24.2043 19.7529 23.4894C20.2774 24.3673 20.9829 25.1823 21.3909 25.6242C20.1205 25.8921 19.1594 26.1596 18.5803 26.3356ZM12.8528 30.6776C12.8245 30.6441 12.8203 30.5734 12.8417 30.4885C12.8863 30.3105 13.2279 29.4286 15.6985 28.3235C15.3447 28.8807 14.7917 29.6769 14.1842 30.2717C13.7565 30.672 13.4235 30.875 13.1944 30.875C13.1124 30.875 12.9995 30.8526 12.8528 30.6776Z" fill="white"/>
</svg>
