<svg width="300" height="300" viewBox="0 0 300 300" fill="none" xmlns="http://www.w3.org/2000/svg">
<circle cx="135" cy="132" r="50" fill="#071013"/>
<path d="M136 118.494C135.117 106.542 124.966 103.184 120 103V146.993C123.531 157.618 132.138 160.09 136 159.998V118.494Z" fill="url(#paint0_linear_65_12)" stroke="#EEFFC0"/>
<g filter="url(#filter0_dddddddd_65_12)">
<path d="M136 118.494C135.117 106.542 124.966 103.184 120 103V146.993C123.531 157.618 132.138 160.09 136 159.998V118.494Z" fill="url(#paint1_linear_65_12)"/>
<path d="M136 118.494C135.117 106.542 124.966 103.184 120 103V146.993C123.531 157.618 132.138 160.09 136 159.998V118.494Z" stroke="#EEFFC0"/>
</g>
<path d="M136 118.494C135.117 106.542 124.966 103.184 120 103V146.993C123.531 157.618 132.138 160.09 136 159.998V118.494Z" fill="url(#paint2_linear_65_12)" stroke="#DFFF86"/>
<g filter="url(#filter1_d_65_12)">
<path fill-rule="evenodd" clip-rule="evenodd" d="M150 140C147.575 139.999 145.233 140.879 143.41 142.476C141.586 144.073 140.404 146.279 140.085 148.682C139.812 150.77 140.201 152.892 141.196 154.748L140.028 159.104C139.984 159.265 139.999 159.435 140.069 159.586C140.139 159.737 140.26 159.858 140.411 159.928C140.562 159.998 140.732 160.013 140.893 159.969L145.248 158.803V158.803C146.714 159.589 148.351 160 150.013 160C150.45 159.999 150.886 159.97 151.319 159.914C153.721 159.593 155.926 158.411 157.522 156.587C159.119 154.764 159.999 152.422 160 149.999C160 148.243 159.538 146.519 158.661 144.999C157.783 143.479 156.52 142.216 155 141.339C153.48 140.461 151.755 140 149.999 140L150 140Z" fill="url(#paint3_linear_65_12)"/>
<path d="M150.012 159.5C148.532 159.5 147.072 159.156 145.748 158.498V158.151L145.119 158.32L140.763 159.486L140.762 159.487C140.715 159.499 140.666 159.495 140.622 159.475C140.578 159.454 140.543 159.419 140.522 159.375C140.502 159.331 140.498 159.282 140.51 159.235L140.511 159.234L141.679 154.878L141.73 154.686L141.637 154.512C140.691 152.748 140.321 150.732 140.581 148.747C140.884 146.464 142.007 144.37 143.739 142.853L143.739 142.853C145.459 141.346 147.665 140.511 149.95 140.5L150 140.5C151.667 140.5 153.306 140.938 154.75 141.772C156.194 142.605 157.394 143.805 158.228 145.249C159.061 146.693 159.5 148.331 159.5 149.999C159.5 152.301 158.663 154.525 157.146 156.258C155.629 157.99 153.535 159.113 151.253 159.418C150.841 159.472 150.427 159.499 150.012 159.5Z" stroke="#DFFF86"/>
</g>
<g filter="url(#filter2_dddddddd_65_12)">
<path fill-rule="evenodd" clip-rule="evenodd" d="M150 140C147.575 139.999 145.233 140.879 143.41 142.476C141.586 144.073 140.404 146.279 140.085 148.682C139.812 150.77 140.201 152.892 141.196 154.748L140.028 159.104C139.984 159.265 139.999 159.435 140.069 159.586C140.139 159.737 140.26 159.858 140.411 159.928C140.562 159.998 140.732 160.013 140.893 159.969L145.248 158.803V158.803C146.714 159.589 148.351 160 150.013 160C150.45 159.999 150.886 159.97 151.319 159.914C153.721 159.593 155.926 158.411 157.522 156.587C159.119 154.764 159.999 152.422 160 149.999C160 148.243 159.538 146.519 158.661 144.999C157.783 143.479 156.52 142.216 155 141.339C153.48 140.461 151.755 140 149.999 140L150 140Z" fill="url(#paint4_linear_65_12)"/>
<path d="M150.012 159.5C148.532 159.5 147.072 159.156 145.748 158.498V158.151L145.119 158.32L140.763 159.486L140.762 159.487C140.715 159.499 140.666 159.495 140.622 159.475C140.578 159.454 140.543 159.419 140.522 159.375C140.502 159.331 140.498 159.282 140.51 159.235L140.511 159.234L141.679 154.878L141.73 154.686L141.637 154.512C140.691 152.748 140.321 150.732 140.581 148.747C140.884 146.464 142.007 144.37 143.739 142.853L143.739 142.853C145.459 141.346 147.665 140.511 149.95 140.5L150 140.5C151.667 140.5 153.306 140.938 154.75 141.772C156.194 142.605 157.394 143.805 158.228 145.249C159.061 146.693 159.5 148.331 159.5 149.999C159.5 152.301 158.663 154.525 157.146 156.258C155.629 157.99 153.535 159.113 151.253 159.418C150.841 159.472 150.427 159.499 150.012 159.5Z" stroke="#DFFF86"/>
</g>
<defs>
<filter id="filter0_dddddddd_65_12" x="111" y="93.9811" width="34" height="75.0189" filterUnits="userSpaceOnUse" color-interpolation-filters="sRGB">
<feFlood flood-opacity="0" result="BackgroundImageFix"/>
<feColorMatrix in="SourceAlpha" type="matrix" values="0 0 0 0 0 0 0 0 0 0 0 0 0 0 0 0 0 0 127 0" result="hardAlpha"/>
<feOffset/>
<feGaussianBlur stdDeviation="4.25"/>
<feComposite in2="hardAlpha" operator="out"/>
<feColorMatrix type="matrix" values="0 0 0 0 0.701961 0 0 0 0 0.941176 0 0 0 0 0.0509804 0 0 0 0.22 0"/>
<feBlend mode="normal" in2="BackgroundImageFix" result="effect1_dropShadow_65_12"/>
<feColorMatrix in="SourceAlpha" type="matrix" values="0 0 0 0 0 0 0 0 0 0 0 0 0 0 0 0 0 0 127 0" result="hardAlpha"/>
<feOffset/>
<feGaussianBlur stdDeviation="4.25"/>
<feComposite in2="hardAlpha" operator="out"/>
<feColorMatrix type="matrix" values="0 0 0 0 0.701961 0 0 0 0 0.941176 0 0 0 0 0.0509804 0 0 0 0.22 0"/>
<feBlend mode="normal" in2="effect1_dropShadow_65_12" result="effect2_dropShadow_65_12"/>
<feColorMatrix in="SourceAlpha" type="matrix" values="0 0 0 0 0 0 0 0 0 0 0 0 0 0 0 0 0 0 127 0" result="hardAlpha"/>
<feOffset/>
<feGaussianBlur stdDeviation="4.25"/>
<feComposite in2="hardAlpha" operator="out"/>
<feColorMatrix type="matrix" values="0 0 0 0 0.701961 0 0 0 0 0.941176 0 0 0 0 0.0509804 0 0 0 0.22 0"/>
<feBlend mode="normal" in2="effect2_dropShadow_65_12" result="effect3_dropShadow_65_12"/>
<feColorMatrix in="SourceAlpha" type="matrix" values="0 0 0 0 0 0 0 0 0 0 0 0 0 0 0 0 0 0 127 0" result="hardAlpha"/>
<feOffset/>
<feGaussianBlur stdDeviation="4.25"/>
<feComposite in2="hardAlpha" operator="out"/>
<feColorMatrix type="matrix" values="0 0 0 0 0.701961 0 0 0 0 0.941176 0 0 0 0 0.0509804 0 0 0 0.22 0"/>
<feBlend mode="normal" in2="effect3_dropShadow_65_12" result="effect4_dropShadow_65_12"/>
<feColorMatrix in="SourceAlpha" type="matrix" values="0 0 0 0 0 0 0 0 0 0 0 0 0 0 0 0 0 0 127 0" result="hardAlpha"/>
<feOffset/>
<feGaussianBlur stdDeviation="4.25"/>
<feComposite in2="hardAlpha" operator="out"/>
<feColorMatrix type="matrix" values="0 0 0 0 0.701961 0 0 0 0 0.941176 0 0 0 0 0.0509804 0 0 0 0.22 0"/>
<feBlend mode="normal" in2="effect4_dropShadow_65_12" result="effect5_dropShadow_65_12"/>
<feColorMatrix in="SourceAlpha" type="matrix" values="0 0 0 0 0 0 0 0 0 0 0 0 0 0 0 0 0 0 127 0" result="hardAlpha"/>
<feOffset/>
<feGaussianBlur stdDeviation="4.25"/>
<feComposite in2="hardAlpha" operator="out"/>
<feColorMatrix type="matrix" values="0 0 0 0 0.701961 0 0 0 0 0.941176 0 0 0 0 0.0509804 0 0 0 0.22 0"/>
<feBlend mode="normal" in2="effect5_dropShadow_65_12" result="effect6_dropShadow_65_12"/>
<feColorMatrix in="SourceAlpha" type="matrix" values="0 0 0 0 0 0 0 0 0 0 0 0 0 0 0 0 0 0 127 0" result="hardAlpha"/>
<feOffset/>
<feGaussianBlur stdDeviation="4.25"/>
<feComposite in2="hardAlpha" operator="out"/>
<feColorMatrix type="matrix" values="0 0 0 0 0.701961 0 0 0 0 0.941176 0 0 0 0 0.0509804 0 0 0 0.22 0"/>
<feBlend mode="normal" in2="effect6_dropShadow_65_12" result="effect7_dropShadow_65_12"/>
<feColorMatrix in="SourceAlpha" type="matrix" values="0 0 0 0 0 0 0 0 0 0 0 0 0 0 0 0 0 0 127 0" result="hardAlpha"/>
<feOffset/>
<feGaussianBlur stdDeviation="4.25"/>
<feComposite in2="hardAlpha" operator="out"/>
<feColorMatrix type="matrix" values="0 0 0 0 0.701961 0 0 0 0 0.941176 0 0 0 0 0.0509804 0 0 0 0.22 0"/>
<feBlend mode="normal" in2="effect7_dropShadow_65_12" result="effect8_dropShadow_65_12"/>
<feBlend mode="normal" in="SourceGraphic" in2="effect8_dropShadow_65_12" result="shape"/>
</filter>
<filter id="filter1_d_65_12" x="0.139999" y="0.139999" width="299.72" height="299.72" filterUnits="userSpaceOnUse" color-interpolation-filters="sRGB">
<feFlood flood-opacity="0" result="BackgroundImageFix"/>
<feColorMatrix in="SourceAlpha" type="matrix" values="0 0 0 0 0 0 0 0 0 0 0 0 0 0 0 0 0 0 127 0" result="hardAlpha"/>
<feOffset/>
<feGaussianBlur stdDeviation="69.93"/>
<feColorMatrix type="matrix" values="0 0 0 0 1 0 0 0 0 1 0 0 0 0 1 0 0 0 1 0"/>
<feBlend mode="normal" in2="BackgroundImageFix" result="effect1_dropShadow_65_12"/>
<feBlend mode="normal" in="SourceGraphic" in2="effect1_dropShadow_65_12" result="shape"/>
</filter>
<filter id="filter2_dddddddd_65_12" x="131.5" y="131.5" width="37" height="37" filterUnits="userSpaceOnUse" color-interpolation-filters="sRGB">
<feFlood flood-opacity="0" result="BackgroundImageFix"/>
<feColorMatrix in="SourceAlpha" type="matrix" values="0 0 0 0 0 0 0 0 0 0 0 0 0 0 0 0 0 0 127 0" result="hardAlpha"/>
<feOffset/>
<feGaussianBlur stdDeviation="4.25"/>
<feComposite in2="hardAlpha" operator="out"/>
<feColorMatrix type="matrix" values="0 0 0 0 0.701961 0 0 0 0 0.941176 0 0 0 0 0.0509804 0 0 0 0.22 0"/>
<feBlend mode="normal" in2="BackgroundImageFix" result="effect1_dropShadow_65_12"/>
<feColorMatrix in="SourceAlpha" type="matrix" values="0 0 0 0 0 0 0 0 0 0 0 0 0 0 0 0 0 0 127 0" result="hardAlpha"/>
<feOffset/>
<feGaussianBlur stdDeviation="4.25"/>
<feComposite in2="hardAlpha" operator="out"/>
<feColorMatrix type="matrix" values="0 0 0 0 0.701961 0 0 0 0 0.941176 0 0 0 0 0.0509804 0 0 0 0.22 0"/>
<feBlend mode="normal" in2="effect1_dropShadow_65_12" result="effect2_dropShadow_65_12"/>
<feColorMatrix in="SourceAlpha" type="matrix" values="0 0 0 0 0 0 0 0 0 0 0 0 0 0 0 0 0 0 127 0" result="hardAlpha"/>
<feOffset/>
<feGaussianBlur stdDeviation="4.25"/>
<feComposite in2="hardAlpha" operator="out"/>
<feColorMatrix type="matrix" values="0 0 0 0 0.701961 0 0 0 0 0.941176 0 0 0 0 0.0509804 0 0 0 0.22 0"/>
<feBlend mode="normal" in2="effect2_dropShadow_65_12" result="effect3_dropShadow_65_12"/>
<feColorMatrix in="SourceAlpha" type="matrix" values="0 0 0 0 0 0 0 0 0 0 0 0 0 0 0 0 0 0 127 0" result="hardAlpha"/>
<feOffset/>
<feGaussianBlur stdDeviation="4.25"/>
<feComposite in2="hardAlpha" operator="out"/>
<feColorMatrix type="matrix" values="0 0 0 0 0.701961 0 0 0 0 0.941176 0 0 0 0 0.0509804 0 0 0 0.22 0"/>
<feBlend mode="normal" in2="effect3_dropShadow_65_12" result="effect4_dropShadow_65_12"/>
<feColorMatrix in="SourceAlpha" type="matrix" values="0 0 0 0 0 0 0 0 0 0 0 0 0 0 0 0 0 0 127 0" result="hardAlpha"/>
<feOffset/>
<feGaussianBlur stdDeviation="4.25"/>
<feComposite in2="hardAlpha" operator="out"/>
<feColorMatrix type="matrix" values="0 0 0 0 0.701961 0 0 0 0 0.941176 0 0 0 0 0.0509804 0 0 0 0.22 0"/>
<feBlend mode="normal" in2="effect4_dropShadow_65_12" result="effect5_dropShadow_65_12"/>
<feColorMatrix in="SourceAlpha" type="matrix" values="0 0 0 0 0 0 0 0 0 0 0 0 0 0 0 0 0 0 127 0" result="hardAlpha"/>
<feOffset/>
<feGaussianBlur stdDeviation="4.25"/>
<feComposite in2="hardAlpha" operator="out"/>
<feColorMatrix type="matrix" values="0 0 0 0 0.701961 0 0 0 0 0.941176 0 0 0 0 0.0509804 0 0 0 0.22 0"/>
<feBlend mode="normal" in2="effect5_dropShadow_65_12" result="effect6_dropShadow_65_12"/>
<feColorMatrix in="SourceAlpha" type="matrix" values="0 0 0 0 0 0 0 0 0 0 0 0 0 0 0 0 0 0 127 0" result="hardAlpha"/>
<feOffset/>
<feGaussianBlur stdDeviation="4.25"/>
<feComposite in2="hardAlpha" operator="out"/>
<feColorMatrix type="matrix" values="0 0 0 0 0.701961 0 0 0 0 0.941176 0 0 0 0 0.0509804 0 0 0 0.22 0"/>
<feBlend mode="normal" in2="effect6_dropShadow_65_12" result="effect7_dropShadow_65_12"/>
<feColorMatrix in="SourceAlpha" type="matrix" values="0 0 0 0 0 0 0 0 0 0 0 0 0 0 0 0 0 0 127 0" result="hardAlpha"/>
<feOffset/>
<feGaussianBlur stdDeviation="4.25"/>
<feComposite in2="hardAlpha" operator="out"/>
<feColorMatrix type="matrix" values="0 0 0 0 0.701961 0 0 0 0 0.941176 0 0 0 0 0.0509804 0 0 0 0.22 0"/>
<feBlend mode="normal" in2="effect7_dropShadow_65_12" result="effect8_dropShadow_65_12"/>
<feBlend mode="normal" in="SourceGraphic" in2="effect8_dropShadow_65_12" result="shape"/>
</filter>
<linearGradient id="paint0_linear_65_12" x1="132.69" y1="109.364" x2="119.93" y2="153.614" gradientUnits="userSpaceOnUse">
<stop stop-color="#EEFFC0"/>
<stop offset="1" stop-color="#B3F00D"/>
</linearGradient>
<linearGradient id="paint1_linear_65_12" x1="132.69" y1="109.364" x2="119.93" y2="153.614" gradientUnits="userSpaceOnUse">
<stop stop-color="#EEFFC0"/>
<stop offset="1" stop-color="#B3F00D"/>
</linearGradient>
<linearGradient id="paint2_linear_65_12" x1="151" y1="105.5" x2="119.924" y2="153.584" gradientUnits="userSpaceOnUse">
<stop offset="0.372399" stop-color="#EEFFC0"/>
<stop offset="1" stop-color="#B3F00D"/>
</linearGradient>
<linearGradient id="paint3_linear_65_12" x1="155" y1="145" x2="140.5" y2="159.5" gradientUnits="userSpaceOnUse">
<stop stop-color="#EEFFC0"/>
<stop offset="1" stop-color="#B3F00D"/>
</linearGradient>
<linearGradient id="paint4_linear_65_12" x1="155" y1="145" x2="140.5" y2="159.5" gradientUnits="userSpaceOnUse">
<stop stop-color="#EEFFC0"/>
<stop offset="1" stop-color="#B3F00D"/>
</linearGradient>
</defs>
</svg>
