<svg width="24" height="24" viewBox="0 0 24 24" fill="none" xmlns="http://www.w3.org/2000/svg">
<g clip-path="url(#clip0_1812_25955)">
<path d="M5.5 20.125H7.375V22H5.5C4.12109 22 3 20.8789 3 19.5V4.5C3 3.12109 4.12109 2 5.5 2H11.9648C12.6289 2 13.2656 2.26172 13.7344 2.73047L17.2695 6.26562C17.7383 6.73438 18 7.37109 18 8.03516V13.875H16.125V8.25H13C12.3086 8.25 11.75 7.69141 11.75 7V3.875H5.5C5.15625 3.875 4.875 4.15625 4.875 4.5V19.5C4.875 19.8438 5.15625 20.125 5.5 20.125ZM9.875 15.75H11.125C12.332 15.75 13.3125 16.7305 13.3125 17.9375C13.3125 19.1445 12.332 20.125 11.125 20.125H10.5V21.375C10.5 21.7188 10.2188 22 9.875 22C9.53125 22 9.25 21.7188 9.25 21.375V19.5V16.375C9.25 16.0312 9.53125 15.75 9.875 15.75ZM11.125 18.875C11.6445 18.875 12.0625 18.457 12.0625 17.9375C12.0625 17.418 11.6445 17 11.125 17H10.5V18.875H11.125ZM14.875 15.75H16.125C17.1602 15.75 18 16.5898 18 17.625V20.125C18 21.1602 17.1602 22 16.125 22H14.875C14.5312 22 14.25 21.7188 14.25 21.375V16.375C14.25 16.0312 14.5312 15.75 14.875 15.75ZM16.125 20.75C16.4688 20.75 16.75 20.4688 16.75 20.125V17.625C16.75 17.2812 16.4688 17 16.125 17H15.5V20.75H16.125ZM19.25 16.375C19.25 16.0312 19.5312 15.75 19.875 15.75H21.75C22.0938 15.75 22.375 16.0312 22.375 16.375C22.375 16.7188 22.0938 17 21.75 17H20.5V18.25H21.75C22.0938 18.25 22.375 18.5312 22.375 18.875C22.375 19.2188 22.0938 19.5 21.75 19.5H20.5V21.375C20.5 21.7188 20.2188 22 19.875 22C19.5312 22 19.25 21.7188 19.25 21.375V18.875V16.375Z" fill="#333333"/>
</g>
<defs>
<clipPath id="clip0_1812_25955">
<rect width="20" height="20" fill="white" transform="translate(3 2)"/>
</clipPath>
</defs>
</svg>
