<svg width="32" height="32" viewBox="0 0 32 32" fill="none" xmlns="http://www.w3.org/2000/svg">
<circle cx="16" cy="16" r="16" fill="#4F6161"/>
<path fill-rule="evenodd" clip-rule="evenodd" d="M11.1411 15.8154C11.0879 15.7626 11.0119 15.7398 10.9384 15.7546C10.865 15.7693 10.8037 15.8198 10.7751 15.889C10.7465 15.9583 10.7543 16.0373 10.7959 16.0996C10.8375 16.1619 10.9074 16.1994 10.9824 16.1995V16.1987C11.0419 16.1987 11.099 16.175 11.1411 16.1329C11.1832 16.0908 11.2068 16.0337 11.2068 15.9741C11.2068 15.9146 11.1832 15.8575 11.1411 15.8154ZM10.9824 15.2998C11.2233 15.2998 11.4458 15.4284 11.5663 15.637C11.6868 15.8456 11.6868 16.1027 11.5663 16.3113C11.4458 16.5199 11.2233 16.6484 10.9824 16.6484V16.6476C10.8017 16.6505 10.6275 16.5808 10.4987 16.4541C10.37 16.3274 10.2975 16.1544 10.2975 15.9737C10.2975 15.7931 10.37 15.62 10.4987 15.4933C10.6275 15.3666 10.8017 15.2969 10.9824 15.2998ZM19.9271 15.8154C19.8778 15.766 19.8082 15.7423 19.739 15.7515C19.6697 15.7605 19.6086 15.8014 19.5736 15.8619C19.5387 15.9224 19.5339 15.9957 19.5607 16.0603C19.5874 16.1248 19.6427 16.1732 19.7101 16.1913C19.7776 16.2094 19.8497 16.195 19.9051 16.1525C19.9605 16.1099 19.993 16.044 19.9929 15.9741C19.9931 15.9146 19.9694 15.8574 19.9271 15.8154ZM19.7685 15.2998H19.7684C19.9781 15.2998 20.1758 15.3973 20.3034 15.5636C20.431 15.7299 20.474 15.9461 20.4198 16.1487C20.3655 16.3512 20.2202 16.5169 20.0265 16.5971C19.8328 16.6773 19.6128 16.6629 19.4313 16.5581C19.2497 16.4533 19.1273 16.27 19.0999 16.0622C19.0725 15.8544 19.1434 15.6456 19.2916 15.4973C19.4181 15.3706 19.5899 15.2995 19.7689 15.2998L19.7685 15.2998ZM14.44 16.6022C14.44 16.5219 14.4829 16.4476 14.5525 16.4075C14.6221 16.3673 14.7078 16.3673 14.7774 16.4075C14.847 16.4476 14.8898 16.5219 14.8898 16.6022H14.8889C14.8909 16.7123 14.9396 16.8163 15.023 16.8883C15.12 16.9736 15.2451 17.0201 15.3743 17.0189C15.5025 17.0204 15.6268 16.9743 15.7231 16.8895C15.8073 16.8164 15.8571 16.7114 15.8601 16.5999C15.8637 16.3352 15.6027 16.2653 15.3368 16.194C14.9005 16.0771 14.4555 15.9578 14.4404 15.3259C14.4404 15.2968 14.4394 15.3236 14.4394 15.3071H14.4402V15.3071C14.4419 15.0752 14.5429 14.8551 14.7178 14.7027C14.8409 14.5931 14.9899 14.5169 15.1508 14.4813V14.2159C15.1508 14.1359 15.1935 14.0619 15.2628 14.0219C15.3321 13.9819 15.4175 13.9819 15.4868 14.0219C15.5561 14.0619 15.5988 14.1359 15.5988 14.2159V14.4815C15.758 14.517 15.9054 14.5927 16.0271 14.7015C16.2051 14.8584 16.3076 15.084 16.3087 15.3214H16.3095C16.3095 15.4017 16.2667 15.4759 16.1971 15.5161C16.1275 15.5563 16.0418 15.5563 15.9722 15.5161C15.9026 15.4759 15.8598 15.4017 15.8598 15.3214H15.8607C15.8588 15.2112 15.8101 15.1071 15.7266 15.0353C15.6296 14.9497 15.5042 14.9031 15.3748 14.9045V14.9053C15.3492 14.9053 15.3783 14.9043 15.3606 14.9053C15.2344 14.9071 15.113 14.9537 15.018 15.0367C14.9381 15.1045 14.8908 15.2031 14.8882 15.3078C14.8882 15.3334 14.887 15.2961 14.8882 15.3162C14.8954 15.6115 15.1766 15.6868 15.4525 15.7606C15.8885 15.8774 16.3162 15.9917 16.308 16.6057V16.6058C16.3041 16.8426 16.201 17.067 16.0235 17.2239C15.9024 17.3321 15.7554 17.4074 15.5969 17.4426V17.708C15.5969 17.788 15.5542 17.862 15.4848 17.902C15.4156 17.942 15.3301 17.942 15.2609 17.902C15.1915 17.862 15.1488 17.788 15.1488 17.708V17.4422C14.9897 17.4067 14.8423 17.331 14.7208 17.2223C14.5428 17.0653 14.4403 16.8398 14.4392 16.6024L14.44 16.6022ZM20.5892 13.0887C20.6332 13.2978 20.7371 13.4896 20.8882 13.6408C21.0392 13.7919 21.231 13.8958 21.44 13.9399L21.4384 17.9867H21.4384C21.2293 18.0308 21.0374 18.1347 20.8862 18.2857C20.735 18.4368 20.631 18.6286 20.5869 18.8378L10.1616 18.8344L10.1616 18.8344C10.1175 18.6252 10.0136 18.4335 9.86253 18.2823C9.71144 18.1311 9.51965 18.0271 9.31057 17.983L9.31236 13.9361H9.3123C9.52144 13.8919 9.71322 13.788 9.86439 13.637C10.0156 13.4859 10.1196 13.2941 10.1639 13.0851L20.5892 13.0884L20.5892 13.0887ZM9.96288 12.6374L20.7895 12.6408C20.8489 12.6408 20.9059 12.6644 20.9479 12.7064C20.9899 12.7484 21.0134 12.8053 21.0134 12.8648C21.0142 13.0369 21.0828 13.2019 21.2045 13.3237C21.3262 13.4455 21.491 13.5144 21.6633 13.5152V13.5144C21.7229 13.5143 21.7802 13.538 21.8223 13.5802C21.8646 13.6224 21.8883 13.6796 21.8883 13.7392C21.8883 13.746 21.8883 13.7526 21.8875 13.7592L21.8864 18.1888C21.8864 18.2482 21.8627 18.3051 21.8207 18.3471C21.7787 18.3892 21.7218 18.4128 21.6623 18.4128C21.4901 18.4135 21.3252 18.4822 21.2033 18.6039C21.0815 18.7256 21.0126 18.8905 21.0117 19.0627C21.0117 19.1221 20.9881 19.1791 20.9461 19.2211C20.9041 19.2631 20.8471 19.2867 20.7877 19.2867L9.96108 19.2834V19.2833C9.90171 19.2833 9.84471 19.2597 9.8027 19.2177C9.76069 19.1757 9.73713 19.1187 9.73713 19.0594C9.73632 18.8871 9.66763 18.7222 9.54593 18.6004C9.42423 18.4785 9.25936 18.4097 9.08713 18.4087V18.4095C9.02753 18.4095 8.97029 18.3859 8.92811 18.3437C8.88598 18.3015 8.86226 18.2443 8.86226 18.1847C8.86226 18.1781 8.86226 18.1714 8.86312 18.1648L8.86492 13.7362V13.7362C8.86492 13.6768 8.88853 13.6199 8.93054 13.5779C8.97256 13.5358 9.0295 13.5122 9.08893 13.5122C9.26115 13.5115 9.42614 13.4428 9.54801 13.321C9.66982 13.1993 9.73869 13.0343 9.73962 12.8621C9.73962 12.8027 9.76317 12.7457 9.80519 12.7037C9.8472 12.6617 9.9042 12.6381 9.96357 12.6381L9.96288 12.6374ZM8.7645 20.3765L22.4434 20.3809C22.6427 20.3807 22.8338 20.3014 22.9748 20.1604C23.1158 20.0195 23.1951 19.8284 23.1954 19.6291L23.1982 12.8035H23.6675C23.7557 12.8035 23.8404 12.8379 23.9035 12.8995C23.9646 12.9585 23.9995 13.0396 24 13.1245L23.997 20.6885C23.9965 20.7731 23.9619 20.8539 23.901 20.9125C23.8376 20.9744 23.7525 21.009 23.664 21.009L9.09696 21.0044C9.00883 21.0046 8.92411 20.9701 8.86108 20.9085C8.79991 20.8496 8.76508 20.7686 8.76456 20.6838L8.7645 20.3765ZM22.7504 12.5799L22.7475 19.6288C22.7469 19.7092 22.7147 19.7862 22.6578 19.8431C22.6009 19.9 22.524 19.9321 22.4435 19.9326L8.54137 19.9281H8.30364C8.22332 19.9276 8.14641 19.8954 8.08958 19.8386C8.03281 19.7817 8.00058 19.7049 8 19.6245L8.00301 12.2943V12.2944C8.00365 12.2139 8.03588 12.137 8.09277 12.0802C8.14965 12.0234 8.22662 11.9912 8.307 11.9907L22.4469 11.9952C22.5273 11.9958 22.6043 12.028 22.6611 12.0849C22.7179 12.1418 22.7501 12.2187 22.7506 12.2992V12.5801L22.7504 12.5799ZM16.9711 14.3666C16.5477 13.9439 15.9737 13.7066 15.3754 13.7067C14.7771 13.7069 14.2033 13.9446 13.7802 14.3676C13.357 14.7905 13.119 15.3641 13.1184 15.9625C13.1184 16.5614 13.3563 17.1356 13.7797 17.5591C14.2032 17.9825 14.7774 18.2204 15.3762 18.2204V18.2212C15.9749 18.221 16.549 17.9828 16.9722 17.5593C17.3953 17.1358 17.633 16.5615 17.6328 15.9627C17.6326 15.364 17.3946 14.7899 16.9712 14.3666L16.9711 14.3666ZM15.3753 13.2558C14.6575 13.2558 13.9692 13.5408 13.4615 14.0483C12.9539 14.5557 12.6687 15.244 12.6686 15.9618C12.6682 16.437 12.7931 16.9039 13.0306 17.3155C13.2682 17.7271 13.6099 18.069 14.0215 18.3065C14.4331 18.5441 14.9 18.669 15.3752 18.6687V18.6679C15.8528 18.6718 16.3228 18.5492 16.7376 18.3127C17.1525 18.0761 17.4973 17.7341 17.7372 17.3211C17.9771 16.9082 18.1035 16.4392 18.1035 15.9617C18.1035 15.4841 17.9771 15.0151 17.7372 14.6022C17.4973 14.1893 17.1525 13.8472 16.7376 13.6106C16.3228 13.3741 15.8528 13.2516 15.3752 13.2554L15.3753 13.2558Z" fill="#B3F00D"/>
</svg>
