<svg width="32" height="32" viewBox="0 0 32 32" fill="none" xmlns="http://www.w3.org/2000/svg">
    <path fill-rule="evenodd" clip-rule="evenodd"
          d="M12.1606 9.76696H21.0876V22.2816H20.3437L20.3442 10.5104L12.1606 10.5468L12.1606 9.76696ZM22.8547 8V20.5146H22.1106L22.1113 8.7434L13.9276 8.77975V8L22.8547 8ZM15.412 18.0776C15.2948 17.7889 14.9361 17.705 14.6569 17.6224C14.342 17.5291 14.0146 17.4458 13.7437 17.259C12.9369 16.7023 12.9933 15.3559 13.928 14.9483C14.0234 14.9066 14.1241 14.8787 14.2264 14.8571L14.1413 14.1977H15.1517L15.0651 14.8683C15.2332 14.9072 15.3954 14.9669 15.5391 15.0578C15.8428 15.2498 16.0073 15.5568 16.0795 15.8853L15.2727 16.045C15.2341 15.9305 15.1725 15.8237 15.0765 15.7469C14.9644 15.6569 14.8155 15.6157 14.6687 15.611C14.406 15.6024 14.0632 15.6706 13.9629 15.9352C13.9076 16.0814 13.9449 16.2514 14.0568 16.3644C14.1572 16.4656 14.4009 16.571 14.7877 16.6809C15.1748 16.7905 15.461 16.9041 15.6465 17.0212C15.8318 17.1385 15.9769 17.2989 16.0818 17.5022C16.3929 18.1062 16.2655 19.0039 15.6944 19.4339C15.5157 19.5682 15.301 19.6527 15.077 19.6972L15.1517 20.2759H14.1413L14.2183 19.6798C14.0045 19.6264 13.8036 19.5343 13.6361 19.3975C13.3156 19.1355 13.1494 18.7447 13.0735 18.3462L13.8424 18.1725C13.9088 18.5852 14.2155 18.911 14.6697 18.911C14.9258 18.911 15.1189 18.8461 15.2488 18.7158C15.4145 18.5495 15.5017 18.2982 15.412 18.0777L15.412 18.0776ZM10.0001 22.8023L11.1972 24L12.0575 23.1395L12.9157 23.9977L13.7833 23.1444L14.6364 23.9977L15.504 23.1444L16.3569 23.9977L17.2317 23.1374L18.0942 23.9998L19.3206 22.7732V11.534H10L10.0001 22.8023Z"
          fill="#071013"/>
</svg>
