<svg width="32" height="32" viewBox="0 0 32 32" fill="none" xmlns="http://www.w3.org/2000/svg">
<circle cx="16" cy="16" r="16" fill="#4F6161"/>
<g clip-path="url(#clip0_251_9823)">
<path fill-rule="evenodd" clip-rule="evenodd" d="M18.065 10.4303H11.505V16.9903H18.065V10.4303ZM18.5148 16.6721L20.495 14.692V8.31825L18.5148 10.2985V16.6721ZM15.3281 9.98039L17.3082 8.00012H20.1772L18.1969 9.98039H15.3281ZM14.6198 15.4364C14.7139 15.4387 14.7999 15.4902 14.8463 15.5721C14.8926 15.654 14.8926 15.7543 14.8463 15.8362C14.7999 15.9181 14.7139 15.9696 14.6198 15.9719H12.7808C12.6868 15.9696 12.6008 15.9181 12.5544 15.8362C12.508 15.7543 12.508 15.6541 12.5544 15.5721C12.6008 15.4902 12.6868 15.4387 12.7808 15.4364H14.6198ZM12.7808 14.9873H14.6196C14.8734 14.9911 15.1063 15.1287 15.2321 15.3491C15.358 15.5696 15.358 15.8401 15.2321 16.0605C15.1064 16.281 14.8734 16.4185 14.6196 16.4223H12.7808C12.527 16.4185 12.2942 16.281 12.1683 16.0605C12.0425 15.8401 12.0425 15.5696 12.1683 15.3491C12.2942 15.1287 12.527 14.9911 12.7808 14.9873ZM15.7751 12.421C15.7144 12.4227 15.6556 12.3996 15.6121 12.3573C15.5686 12.315 15.5441 12.2568 15.5441 12.1962C15.5441 12.1354 15.5686 12.0773 15.6121 12.035C15.6556 11.9926 15.7144 11.9696 15.7751 11.9713H17.2138C17.2744 11.9696 17.3332 11.9926 17.3767 12.035C17.4202 12.0773 17.4448 12.1354 17.4448 12.1962C17.4448 12.2568 17.4202 12.315 17.3767 12.3573C17.3332 12.3996 17.2744 12.4227 17.2138 12.421H15.7751ZM15.7751 11.4204C15.7144 11.422 15.6556 11.399 15.6121 11.3567C15.5686 11.3143 15.5441 11.2562 15.5441 11.1955C15.5441 11.1348 15.5686 11.0767 15.6121 11.0343C15.6556 10.992 15.7144 10.969 15.7751 10.9706H17.2138C17.2744 10.969 17.3332 10.992 17.3767 11.0343C17.4202 11.0767 17.4448 11.1348 17.4448 11.1955C17.4448 11.2562 17.4202 11.3143 17.3767 11.3567C17.3332 11.399 17.2744 11.422 17.2138 11.4204H15.7751ZM21.5699 17.4401H15.0099V24.0001H21.5699V17.4401ZM22.0196 23.682L24 21.7017V15.3281L22.0198 17.3082V23.682H22.0196ZM20.8131 15.01H23.6819L21.7016 16.9902H18.8328L20.8131 15.0097V15.01ZM18.1251 22.4469L18.1251 22.4469C18.2192 22.4491 18.3052 22.5007 18.3516 22.5826C18.398 22.6645 18.398 22.7647 18.3516 22.8467C18.3052 22.9285 18.2192 22.9801 18.1251 22.9824H16.2858C16.1917 22.9801 16.1057 22.9285 16.0593 22.8467C16.0129 22.7647 16.0129 22.6645 16.0593 22.5826C16.1057 22.5007 16.1917 22.4491 16.2858 22.4469L18.1251 22.4469ZM16.2857 21.997H18.1244C18.3808 21.997 18.6177 22.1337 18.7459 22.3558C18.874 22.5777 18.874 22.8513 18.7459 23.0734C18.6177 23.2953 18.3807 23.4321 18.1244 23.4321H16.2857C16.0293 23.4321 15.7925 23.2953 15.6643 23.0734C15.5361 22.8513 15.5361 22.5777 15.6643 22.3558C15.7925 22.1337 16.0293 21.997 16.2857 21.997ZM19.28 19.4307C19.2193 19.4323 19.1606 19.4093 19.1171 19.367C19.0736 19.3247 19.0491 19.2665 19.0491 19.2058C19.0491 19.1451 19.0736 19.087 19.1171 19.0446C19.1606 19.0023 19.2193 18.9793 19.28 18.9809H20.7187C20.7976 18.983 20.8697 19.0264 20.9085 19.0951C20.9474 19.1638 20.9474 19.2478 20.9085 19.3165C20.8697 19.3853 20.7976 19.4285 20.7187 19.4307L19.28 19.4307ZM19.28 18.4301C19.2193 18.4317 19.1606 18.4087 19.1171 18.3663C19.0736 18.324 19.0491 18.2658 19.0491 18.2052C19.0491 18.1444 19.0736 18.0863 19.1171 18.044C19.1606 18.0016 19.2193 17.9787 19.28 17.9803H20.7187C20.7976 17.9824 20.8697 18.0257 20.9085 18.0944C20.9474 18.1631 20.9474 18.2472 20.9085 18.3159C20.8697 18.3846 20.7976 18.4279 20.7187 18.4301L19.28 18.4301ZM11.28 17.44H8V24H14.56V17.44H11.28ZM10.2984 15.0097L8.31812 16.9902H11.0551V15.0097H10.2984ZM11.1144 22.4466C11.2085 22.4489 11.2945 22.5005 11.3409 22.5824C11.3873 22.6643 11.3873 22.7645 11.3409 22.8464C11.2945 22.9283 11.2085 22.9799 11.1144 22.9822H9.27584C9.18173 22.9799 9.09573 22.9283 9.04933 22.8464C9.00298 22.7645 9.00298 22.6643 9.04933 22.5824C9.09574 22.5005 9.18173 22.4489 9.27584 22.4466H11.1144ZM9.27584 21.9969H11.1146C11.371 21.9969 11.6079 22.1337 11.7361 22.3557C11.8643 22.5777 11.8643 22.8513 11.7361 23.0733C11.6079 23.2953 11.371 23.432 11.1146 23.432H9.27584C9.01948 23.432 8.78256 23.2953 8.65439 23.0733C8.52621 22.8513 8.52621 22.5777 8.65439 22.3557C8.78256 22.1337 9.01949 21.9969 9.27584 21.9969ZM12.2701 19.4306C12.1911 19.4285 12.1191 19.3852 12.0803 19.3165C12.0414 19.2478 12.0414 19.1637 12.0803 19.095C12.1191 19.0263 12.1912 18.983 12.2701 18.9808H13.7088C13.7695 18.9792 13.8282 19.0022 13.8717 19.0446C13.9152 19.0869 13.9397 19.1451 13.9397 19.2057C13.9397 19.2665 13.9152 19.3246 13.8717 19.3669C13.8282 19.4093 13.7695 19.4322 13.7088 19.4306L12.2701 19.4306ZM12.2701 18.43C12.1911 18.4279 12.1191 18.3845 12.0803 18.3158C12.0414 18.2471 12.0414 18.1631 12.0803 18.0944C12.1191 18.0256 12.1912 17.9823 12.2701 17.9802H13.7088C13.7695 17.9786 13.8282 18.0016 13.8717 18.0439C13.9152 18.0863 13.9397 18.1444 13.9397 18.2051C13.9397 18.2658 13.9152 18.3239 13.8717 18.3663C13.8282 18.4087 13.7695 18.4316 13.7088 18.43L12.2701 18.43ZM11.8229 9.98027H14.6918L16.6719 8H13.8031L11.8229 9.98027Z" fill="#B3F00D"/>
</g>
<defs>
<clipPath id="clip0_251_9823">
<rect width="16" height="16" fill="white" transform="translate(8 8)"/>
</clipPath>
</defs>
</svg>
