<svg width="32" height="32" viewBox="0 0 32 32" fill="none" xmlns="http://www.w3.org/2000/svg">
    <path fill-rule="evenodd" clip-rule="evenodd"
          d="M16.5024 10.164C16.4837 9.97724 16.4266 9.79599 16.3337 9.63271C16.2719 9.49834 16.1462 9.40458 16.0001 9.38428C15.854 9.40459 15.7282 9.49834 15.6665 9.63271C15.5735 9.79599 15.5165 9.97724 15.4977 10.164H16.5024ZM8.00008 22.6156H24.0001V10.5656H23.2798V21.6946C23.2798 21.7478 23.2587 21.7985 23.2212 21.836C23.1837 21.8735 23.1329 21.8946 23.0798 21.8946H8.9211C8.81094 21.8946 8.7211 21.8048 8.7211 21.6946V10.5656H8L8.00008 22.6156ZM20.6611 21.4938L22.8783 19.2766V21.4938H20.6611ZM20.3767 21.2094L20.3775 18.9931H22.5938L20.3775 21.2094H20.3767ZM11.2644 19.1344C11.1863 19.0555 11.1855 18.9289 11.2644 18.85C11.3425 18.7719 11.4699 18.7719 11.548 18.85L12.1433 19.4453L13.516 18.0727V18.0719C13.5949 17.9938 13.7214 17.9938 13.8003 18.0719C13.8784 18.15 13.8784 18.2774 13.8003 18.3563L12.2855 19.8711C12.248 19.9086 12.1972 19.9305 12.1433 19.9305C12.0902 19.9305 12.0394 19.9086 12.0019 19.8711L11.2644 19.1344ZM12.8722 19.893C12.8722 19.7821 12.962 19.6922 13.073 19.6922C13.1839 19.6922 13.2738 19.7821 13.2738 19.893V20.425C13.2738 20.4782 13.2527 20.5289 13.2152 20.5664C13.1777 20.6039 13.1269 20.625 13.0738 20.625H10.5754C10.4645 20.625 10.3754 20.536 10.3754 20.425V17.9274C10.3754 17.8172 10.4645 17.7274 10.5754 17.7274H12.3481C12.459 17.7274 12.5489 17.8172 12.5489 17.9281C12.5489 18.0391 12.459 18.1289 12.3481 18.1289H10.7762V20.2249H12.8722L12.8722 19.893ZM17.048 18.1282V20.2242H14.9527V18.1282H17.048ZM14.752 17.7266H17.2489C17.302 17.7266 17.3528 17.7477 17.3903 17.7852C17.4278 17.8227 17.4489 17.8735 17.4489 17.9266V20.4249C17.4489 20.4781 17.4278 20.5288 17.3903 20.5663C17.3528 20.6038 17.302 20.6249 17.2489 20.6249H14.752C14.6411 20.6249 14.552 20.5359 14.552 20.4249V17.9273C14.552 17.8171 14.6411 17.7273 14.752 17.7273V17.7266ZM19.9762 20.2243H19.1286V18.1283H21.2246V18.5908H20.1769C20.1238 18.5908 20.0722 18.6126 20.0347 18.6501C19.9972 18.6876 19.9761 18.7392 19.9769 18.7923V20.2244L19.9762 20.2243ZM9.1222 12.9391H22.8784V18.5908H21.626V17.9275C21.626 17.8744 21.6049 17.8236 21.5674 17.7861C21.5299 17.7486 21.4791 17.7275 21.426 17.7275H18.9277C18.8175 17.7275 18.7277 17.8173 18.7277 17.9275V20.4251C18.7277 20.4783 18.7488 20.5291 18.7863 20.5666C18.8238 20.6041 18.8746 20.6251 18.9277 20.6251H19.9753V21.4931H9.12217L9.1222 12.9391ZM21.2245 14.3617V16.4577L19.1285 16.457V14.3616L21.2245 14.3617ZM18.9277 13.9602H21.4254C21.4785 13.9602 21.5293 13.9813 21.5668 14.0188C21.6043 14.0563 21.6254 14.1071 21.6254 14.1602V16.6578C21.6254 16.711 21.6043 16.7625 21.5668 16.8C21.5293 16.8375 21.4785 16.8578 21.4254 16.8578H18.9277C18.8175 16.8578 18.7277 16.7688 18.7277 16.6578V14.1602C18.7277 14.0492 18.8175 13.9602 18.9277 13.9602ZM17.048 14.3617V16.4577H14.9527V14.3617H17.048ZM14.752 13.9602H17.2489C17.302 13.9602 17.3528 13.9813 17.3903 14.0188C17.4278 14.0563 17.4489 14.1071 17.4489 14.1602V16.6578C17.4489 16.711 17.4278 16.7625 17.3903 16.8C17.3528 16.8375 17.302 16.8578 17.2489 16.8578H14.752C14.6411 16.8578 14.552 16.7688 14.552 16.6578V14.1602C14.552 14.0492 14.6411 13.9602 14.752 13.9602ZM12.8724 14.3617V16.4577H10.7764V14.3617H12.8724ZM10.5755 13.9602H13.0732C13.1263 13.9602 13.1771 13.9813 13.2146 14.0188C13.2521 14.0563 13.2732 14.1071 13.2732 14.1602V16.6578C13.2732 16.711 13.2521 16.7625 13.2146 16.8C13.1771 16.8375 13.1263 16.8578 13.0732 16.8578H10.5755C10.4646 16.8578 10.3755 16.7688 10.3755 16.6578V14.1602C10.3755 14.0492 10.4646 13.9602 10.5755 13.9602ZM20.9154 10.1648C20.8974 9.97813 20.8396 9.79688 20.7466 9.63359C20.7029 9.48594 20.5669 9.38438 20.413 9.38438C20.2591 9.38438 20.124 9.48594 20.0802 9.63359C19.9865 9.79688 19.9294 9.97813 19.9115 10.1648H20.9154ZM12.0904 10.1648C12.0724 9.97813 12.0146 9.79688 11.9216 9.63359C11.8607 9.49922 11.7349 9.40546 11.588 9.38516C11.4419 9.40547 11.3162 9.49922 11.2552 9.63359C11.1615 9.79688 11.1044 9.97813 11.0865 10.1648H12.0904ZM15.2872 10.5656H16.5028C16.4849 10.7531 16.4271 10.9336 16.3341 11.0969C16.2731 11.2313 16.1466 11.3258 16.0005 11.3461C15.8895 11.3461 15.7997 11.4359 15.7997 11.5469C15.7997 11.6578 15.8895 11.7477 16.0005 11.7477C16.2888 11.7313 16.5466 11.5617 16.6778 11.3039C16.8075 11.0781 16.8857 10.8258 16.906 10.5656H20.9153C20.8973 10.7531 20.8395 10.9336 20.7466 11.0969C20.6848 11.2313 20.5598 11.3258 20.413 11.3461C20.302 11.3461 20.2122 11.4359 20.2122 11.5469C20.2122 11.6578 20.302 11.7477 20.413 11.7477C20.7012 11.7313 20.9591 11.5617 21.0895 11.3039C21.22 11.0781 21.2981 10.8258 21.3192 10.5656H22.8794V12.5368L9.12235 12.5376V10.5657H12.0904C12.0724 10.7532 12.0146 10.9337 11.9216 11.097C11.8599 11.2314 11.7341 11.3259 11.588 11.3462C11.4771 11.3462 11.3872 11.4361 11.3872 11.547C11.3872 11.6579 11.4771 11.7478 11.588 11.7478C11.8763 11.7314 12.1341 11.5618 12.2646 11.304C12.395 11.0782 12.4732 10.8259 12.4935 10.5657L15.2872 10.5656Z"
          fill="#071013"/>
</svg>
